<svg xmlns="http://www.w3.org/2000/svg" width="40" height="40" viewBox="0 0 24 24"><title>arrow-up-circle</title><style>.arrow-circle,.arrow-hover{fill:#929496}</style><path class="arrow-circle" d="M12 1C5.9 1 1 5.9 1 12s4.9 11 11 11 11-4.9 11-11S18.1 1 12 1zm0 20c-5 0-9-4-9-9s4-9 9-9 9 4 9 9-4 9-9 9z"/><path class="arrow-hover" d="M12.7 7.3c-.1-.1-.2-.2-.3-.2-.2-.1-.5-.1-.8 0-.1.1-.2.1-.3.2l-4 4c-.4.4-.4 1 0 1.4s1 .4 1.4 0l2.3-2.3V16c0 .6.4 1 1 1s1-.4 1-1v-5.6l2.3 2.3c.2.2.5.3.7.3s.5-.1.7-.3c.4-.4.4-1 0-1.4l-4-4z"/></svg>