<svg id="facebook" xmlns="http://www.w3.org/2000/svg" width="40" height="40" viewBox="0 0 40 40"><defs><style>.cls-1{fill:#d1d5d8;fill-rule:evenodd}</style></defs><path id="Facebook_Icon" data-name="Facebook Icon" class="cls-1" d="M1284.84 1496a20 20 0 1 1 0 40 20 20 0 0 1 0-40zm.16 1a19 19 0 1 1-19.01 19 18.834 18.834 0 0 1 19.01-19zm3.03 9.92h-1.92s-3.99-.28-3.99 3.73v2.76h-2.72l.01 2.16h2.7l.01 9.51h2.71v-9.51h3l.64-2.16h-3.62v-2.84a1.083 1.083 0 0 1 1.26-1.05h1.9z" transform="translate(-1265 -1496)"/></svg>