<svg id="g_" data-name="g+" xmlns="http://www.w3.org/2000/svg" width="40" height="40" viewBox="0 0 40 40"><defs><style>.cls-1{fill:#d1d5d8;fill-rule:evenodd}</style></defs><path id="g_2" data-name="g+" class="cls-1" d="M1394.99 1496a20 20 0 1 1-20 20 20 20 0 0 1 20-20zm0 1a19 19 0 1 1-19 19 19 19 0 0 1 19-19zm.33 20.29c-.5-.37-1.59-1.13-1.59-1.65 0-.6.17-.9 1.09-1.61a3.641 3.641 0 0 0 1.59-2.87 3.367 3.367 0 0 0-1.53-3.03h1.42l1.2-1.24h-5.4c-2.73 0-5.02 1.98-5.02 4.2a3.867 3.867 0 0 0 4.08 4.06c.18 0 .35-.01.52-.02a2.185 2.185 0 0 0-.28 1.04 1.853 1.853 0 0 0 .77 1.4c-.32 0-.64.01-.98.01-3.13 0-5.31.99-5.31 4.06 0 2.03 2.63 3.45 5.76 3.45 3.58 0 5.81-1.89 5.78-4.05-.03-1.63-.35-2.44-2.1-3.75zm-6.05-6.09a2.459 2.459 0 0 1 2.35-3.01c1.38.04 2.28 1.4 2.52 3.19s-.56 2.9-1.94 2.87a3.3 3.3 0 0 1-2.93-3.05zm2.09 12.07c-2.04 0-3.29-.68-3.29-2.11 0-1.41 1.65-2.15 3.65-2.15.74 0 2.97 0 3.66 1.72a1.377 1.377 0 0 1 .07.5c0 1.44-1.23 2.04-4.09 2.04zm12.72-12.73h-1.82v1.82h-1.82v-1.82h-1.81v-1.81h1.81v-1.82h1.82v1.82h1.82v1.81z" transform="translate(-1375 -1496)"/></svg>