<svg id="pinterest" xmlns="http://www.w3.org/2000/svg" width="40" height="40" viewBox="0 0 40 40"><defs><style>.cls-1{fill:#d1d5d8;fill-rule:evenodd}</style></defs><path id="Pinterest_icon" data-name="Pinterest icon" class="cls-1" d="M1450 1496a20 20 0 1 1-19.99 20 19.994 19.994 0 0 1 19.99-20zm0 1a19 19 0 1 1-18.99 19 18.826 18.826 0 0 1 18.99-19zm1.43 22.86a3.054 3.054 0 0 1-2.64-1.14s-.63 2.4-.76 2.87a10.913 10.913 0 0 1-1.95 3.41.142.142 0 0 1-.25-.06 11.334 11.334 0 0 1 .03-3.96c.21-.85 1.38-5.86 1.38-5.86a2.727 2.727 0 0 1-.34-1.47c0-1.55.93-2.6 2.09-2.6a1.335 1.335 0 0 1 1.45 1.47 22.2 22.2 0 0 1-.95 3.7 1.559 1.559 0 0 0 1.7 1.91c2.04 0 3.42-2.44 3.42-5.45 0-2.28-1.59-4.05-4.49-4.05a4.86 4.86 0 0 0-5.19 5.17 2.625 2.625 0 0 0 .7 1.92.5.5 0 0 1 .16.58c-.06.19-.28.66-.33.84a.373.373 0 0 1-.54.26c-1.51-.59-2.21-2.19-2.21-3.98 0-2.96 2.58-6.51 7.71-6.51 4.12 0 6.83 2.88 6.83 5.97 0 4.09-2.35 6.98-5.82 6.98z" transform="translate(-1430 -1496)"/></svg>