<svg id="twitter" xmlns="http://www.w3.org/2000/svg" width="40" height="40" viewBox="0 0 40 40"><defs><style>.cls-1{fill:#d1d5d8;fill-rule:evenodd}</style></defs><path id="Twitter_icon" data-name="Twitter icon" class="cls-1" d="M1340.01 1496a20 20 0 1 1-20 20 19.992 19.992 0 0 1 20-20zm0 1a19 19 0 1 1-19 19 19 19 0 0 1 19-19zm8.29 14.24a7.316 7.316 0 0 1-1.99.54 3.454 3.454 0 0 0 1.52-1.9 6.99 6.99 0 0 1-2.19.83 3.459 3.459 0 0 0-5.97 2.35 3.331 3.331 0 0 0 .09.78 9.807 9.807 0 0 1-7.11-3.58 3.334 3.334 0 0 0-.47 1.72 3.433 3.433 0 0 0 1.54 2.86 3.6 3.6 0 0 1-1.57-.43v.04a3.451 3.451 0 0 0 2.77 3.37 3.844 3.844 0 0 1-.91.11 3.493 3.493 0 0 1-.65-.06 3.449 3.449 0 0 0 3.22 2.39 6.926 6.926 0 0 1-4.28 1.47 7.368 7.368 0 0 1-.82-.05 9.82 9.82 0 0 0 15.1-8.22c0-.15 0-.3-.01-.45a7.1 7.1 0 0 0 1.73-1.77z" transform="translate(-1320 -1496)"/></svg>