<svg id="vimeo" xmlns="http://www.w3.org/2000/svg" width="40" height="40" viewBox="0 0 40 40"><defs><style>.cls-1{fill:#d1d5d8;fill-rule:evenodd}</style></defs><path id="g_" data-name="g+" class="cls-1" d="M1394.99 1551a20 20 0 1 1-20 20 20 20 0 0 1 20-20zm0 1a19 19 0 1 1-19 19 19 19 0 0 1 19-19z" transform="translate(-1375 -1551)"/><path id="Vimeo-2" data-name="Vimeo" class="cls-1" d="M1390.52 1564.42s1.66-.98 2.23.07c.45.31 1.62 6.79 1.85 8.07s.83 1.76 1.21 1.21a15.751 15.751 0 0 0 2.46-3.85c.83-2.03-.27-2.29-.61-2.17s-2.11.15-1.47-.63a13.075 13.075 0 0 1 2.64-2.33c.8-.55 1.97-1.26 2.95-.09a3.578 3.578 0 0 1 .64 4.71c-1.36 2.53-6.69 9-6.69 9s-1.92 1.32-2.72 0a63.452 63.452 0 0 1-3.44-9.12c-.07-.85-.3-1.09-.71-.85s-1.25 1.51-1.33 1.13-.83-.86-.38-1.64a30.294 30.294 0 0 1 3.37-3.51z" transform="translate(-1375 -1551)"/></svg>